<svg width="241" height="229" viewBox="0 0 241 229" fill="none" xmlns="http://www.w3.org/2000/svg">
<circle cx="101" cy="89" r="140" fill="#FDB44B" fill-opacity="0.9"/>
<path d="M41.5429 45.4862H43.0555V79.6697H41.5429V45.4862ZM50.6186 45.4862H52.1312V72.2385H64.232V73.7248H52.1312V75.211H64.232V76.6972H52.1312V78.1835H64.232V79.6697H50.6186V45.4862ZM47.5934 45.4862H49.106V79.6697H47.5934V45.4862ZM44.5681 45.4862H46.0808V79.6697H44.5681V45.4862Z" fill="white"/>
<path d="M75.1564 79.6697H73.6438V45.4862H75.1564V79.6697ZM72.1312 79.6697H70.6186V45.4862H72.1312V79.6697ZM69.106 79.6697H67.5934V45.4862H69.106V79.6697ZM78.1816 72.2385H94.2741V73.7248H78.1816V75.211H94.2741V76.6972H78.1816V78.1835H94.2741V79.6697H76.669V45.4862H94.2741V46.9725H78.1816V48.4587H94.2741V49.945H78.1816V51.4312H94.2741V52.9174H78.1816V58.8624H86.4379V60.3486H78.1816V61.8349H86.4379V63.3211H78.1816V64.8073H86.4379V66.2936H78.1816V72.2385Z" fill="white"/>
<path d="M97.3413 46.9725V45.4862H120.03V46.9725H97.3413ZM97.3413 49.945V48.4587H120.03V49.945H97.3413ZM97.3413 52.9174V51.4312H120.03V52.9174H113.98V79.6697H112.467V52.9174H110.955V79.6697H109.442V52.9174H107.93V79.6697H106.417V52.9174H104.904V79.6697H103.392V52.9174H97.3413Z" fill="white"/>
<path d="M123.245 51.4312V45.4862H124.757V51.4312H123.245ZM123.245 55.8899V54.4037C123.833 54.4037 124.323 54.3417 124.715 54.2179C125.121 54.094 125.423 53.9564 125.619 53.805C125.815 53.6537 125.962 53.4197 126.06 53.1032C126.172 52.7867 126.235 52.5321 126.249 52.3394C126.263 52.133 126.27 51.8303 126.27 51.4312V45.4862H127.782V51.4312C127.782 51.7339 127.775 51.9748 127.761 52.1537C127.761 52.3326 127.733 52.6009 127.677 52.9587C127.621 53.3028 127.537 53.5917 127.425 53.8257C127.313 54.0459 127.145 54.3005 126.921 54.5894C126.711 54.8784 126.445 55.1124 126.123 55.2913C125.815 55.4564 125.416 55.6009 124.925 55.7248C124.435 55.8349 123.875 55.8899 123.245 55.8899ZM123.245 58.8624V57.3761C123.903 57.3761 124.498 57.3417 125.03 57.2729C125.577 57.1904 126.046 57.094 126.438 56.9839C126.83 56.8739 127.18 56.7087 127.488 56.4885C127.796 56.2683 128.049 56.0688 128.245 55.8899C128.441 55.6972 128.609 55.4427 128.749 55.1261C128.889 54.7959 128.994 54.5206 129.064 54.3005C129.134 54.0803 129.183 53.7706 129.211 53.3716C129.253 52.9725 129.274 52.6628 129.274 52.4427C129.288 52.2087 129.295 51.8716 129.295 51.4312V45.4862H130.808V51.4312C130.808 51.8716 130.801 52.2225 130.787 52.4839C130.787 52.7317 130.759 53.0894 130.703 53.5573C130.661 54.0252 130.598 54.4037 130.514 54.6927C130.43 54.9817 130.296 55.3326 130.114 55.7454C129.946 56.1583 129.736 56.4954 129.484 56.7569C129.246 57.0183 128.931 57.3005 128.539 57.6032C128.161 57.8922 127.726 58.1193 127.236 58.2844C126.746 58.4495 126.158 58.5872 125.472 58.6972C124.799 58.8073 124.057 58.8624 123.245 58.8624Z" fill="white"/>
<path d="M148.371 58.8624H145.829C144.75 58.8624 143.973 58.594 143.497 58.0573C143.021 57.5069 142.782 56.7844 142.782 55.8899C142.782 53.9083 144.288 52.9174 147.299 52.9174C150.128 52.9174 152.257 53.3303 153.686 54.156L152.467 55.0642C151.487 54.6239 149.764 54.4037 147.299 54.4037C146.095 54.4037 145.282 54.5344 144.862 54.7959C144.456 55.0573 144.253 55.422 144.253 55.8899C144.253 56.3578 144.365 56.7225 144.589 56.9839C144.813 57.2454 145.226 57.3761 145.829 57.3761H148.434C150.325 57.3761 152.026 57.6927 153.539 58.3257C155.065 58.9587 156.319 59.8257 157.299 60.9266C158.28 62.0138 159.029 63.2729 159.547 64.7041C160.065 66.1216 160.325 67.6422 160.325 69.2661C160.325 70.5872 160.135 71.8395 159.757 73.0229C159.379 74.2064 158.805 75.2936 158.035 76.2844C157.278 77.2752 156.361 78.1353 155.283 78.8647C154.218 79.5803 152.944 80.1376 151.459 80.5367C149.988 80.9495 148.392 81.156 146.669 81.156C143.966 81.156 141.431 80.75 139.064 79.9381C136.711 79.1399 134.75 78.0183 133.182 76.5734L134.4 75.6858C135.829 76.9518 137.614 77.9358 139.757 78.6376C141.914 79.3257 144.218 79.6697 146.669 79.6697C148.588 79.6697 150.318 79.4014 151.858 78.8647C153.413 78.3142 154.687 77.5642 155.682 76.6147C156.69 75.6651 157.46 74.5642 157.993 73.3119C158.539 72.0596 158.812 70.711 158.812 69.2661C158.812 67.3532 158.42 65.6261 157.635 64.0849C156.851 62.5298 155.654 61.2706 154.043 60.3073C152.446 59.344 150.556 58.8624 148.371 58.8624ZM145.829 60.3486H148.224C151.067 60.3486 153.287 61.2018 154.883 62.9083C156.494 64.6147 157.299 66.7339 157.299 69.2661C157.299 71.8395 156.368 73.9725 154.505 75.6651C152.642 77.344 150.03 78.1835 146.669 78.1835C144.428 78.1835 142.334 77.8807 140.388 77.2752C138.441 76.6697 136.823 75.8165 135.535 74.7156L136.711 73.7867C137.86 74.7087 139.302 75.4243 141.039 75.9335C142.789 76.4427 144.666 76.6972 146.669 76.6972C149.624 76.6972 151.879 76.0023 153.434 74.6124C155.002 73.2225 155.787 71.4404 155.787 69.2661C155.787 67.1193 155.128 65.344 153.812 63.9404C152.509 62.5367 150.64 61.8349 148.203 61.8349H145.829C143.784 61.8349 142.25 61.2844 141.228 60.1835C140.205 59.0826 139.694 57.6514 139.694 55.8899C139.694 54.1284 140.325 52.6972 141.585 51.5963C142.86 50.4954 144.764 49.945 147.299 49.945C149.078 49.945 150.731 50.1514 152.257 50.5642C153.784 50.9633 155.044 51.5413 156.039 52.2982L154.841 53.2064C153.091 52.0229 150.577 51.4312 147.299 51.4312C145.184 51.4312 143.637 51.844 142.656 52.6697C141.69 53.4817 141.207 54.555 141.207 55.8899C141.207 57.2385 141.564 58.3188 142.278 59.1307C143.007 59.9427 144.19 60.3486 145.829 60.3486ZM145.829 63.3211H148.14C150.184 63.3211 151.718 63.8784 152.74 64.9931C153.763 66.1078 154.274 67.5321 154.274 69.2661C154.274 71.0275 153.637 72.4587 152.362 73.5596C151.102 74.6606 149.204 75.211 146.669 75.211C144.89 75.211 143.231 75.0115 141.69 74.6124C140.163 74.1995 138.903 73.6147 137.909 72.8578L139.106 71.9495C140.857 73.133 143.378 73.7248 146.669 73.7248C148.784 73.7248 150.325 73.3188 151.291 72.5069C152.271 71.6812 152.761 70.6009 152.761 69.2661C152.761 67.9312 152.397 66.8578 151.669 66.0459C150.941 65.2202 149.757 64.8073 148.119 64.8073H145.829C142.958 64.8073 140.71 63.9679 139.085 62.289C137.474 60.5963 136.669 58.4633 136.669 55.8899C136.669 53.3165 137.6 51.1904 139.463 49.5115C141.326 47.8188 143.938 46.9725 147.299 46.9725C149.54 46.9725 151.627 47.2752 153.56 47.8807C155.507 48.4862 157.124 49.3394 158.413 50.4404L157.236 51.3693C156.088 50.4472 154.645 49.7317 152.909 49.2225C151.172 48.7133 149.302 48.4587 147.299 48.4587C144.344 48.4587 142.082 49.1537 140.514 50.5436C138.959 51.9335 138.182 53.7156 138.182 55.8899C138.182 58.0505 138.84 59.8326 140.156 61.2362C141.473 62.6261 143.364 63.3211 145.829 63.3211ZM145.829 66.2936H148.14C149.218 66.2936 149.995 66.5688 150.472 67.1193C150.948 67.6697 151.186 68.3853 151.186 69.2661C151.186 71.2477 149.68 72.2385 146.669 72.2385C143.826 72.2385 141.69 71.8257 140.261 71L141.48 70.0917C142.46 70.5321 144.19 70.7523 146.669 70.7523C147.874 70.7523 148.679 70.6216 149.085 70.3601C149.505 70.0986 149.715 69.7339 149.715 69.2661C149.715 68.8119 149.596 68.4541 149.358 68.1927C149.134 67.9174 148.714 67.7798 148.098 67.7798H145.829C143.896 67.7798 142.145 67.4702 140.577 66.8509C139.022 66.2317 137.74 65.3784 136.732 64.2913C135.738 63.2041 134.974 61.945 134.442 60.5138C133.91 59.0826 133.644 57.5413 133.644 55.8899C133.644 54.5688 133.833 53.3165 134.211 52.133C134.589 50.9495 135.156 49.8624 135.913 48.8716C136.683 47.8807 137.6 47.0275 138.665 46.3119C139.743 45.5826 141.018 45.0183 142.488 44.6193C143.973 44.2064 145.577 44 147.299 44C150.002 44 152.53 44.406 154.883 45.2179C157.236 46.0161 159.197 47.1376 160.766 48.5826L159.547 49.4702C158.119 48.2041 156.333 47.2271 154.19 46.539C152.047 45.8372 149.75 45.4862 147.299 45.4862C145.381 45.4862 143.644 45.7615 142.089 46.3119C140.549 46.8486 139.274 47.5917 138.266 48.5413C137.271 49.4908 136.501 50.5917 135.955 51.844C135.423 53.0963 135.156 54.445 135.156 55.8899C135.156 57.8303 135.556 59.578 136.354 61.133C137.152 62.6881 138.371 63.9404 140.009 64.8899C141.648 65.8257 143.588 66.2936 145.829 66.2936Z" fill="white"/>
<path d="M69.3371 114.658H70.8497V132.514H69.3371V114.658ZM75.3875 114.658H76.9001V132.514H75.3875V114.658ZM72.3623 114.658H73.8749V132.514H72.3623V114.658ZM67.8245 114.658V132.514C65.1634 133.505 62.4043 134 59.5471 134C57.0682 134 54.6942 133.553 52.4253 132.658C50.1564 131.764 48.1606 130.525 46.4379 128.943C44.7152 127.346 43.3357 125.378 42.2992 123.039C41.2768 120.686 40.7656 118.147 40.7656 115.422C40.7656 112.904 41.2628 110.502 42.2572 108.218C43.2656 105.92 44.6102 103.945 46.2908 102.294C47.9855 100.628 49.9953 99.3073 52.3203 98.3303C54.6592 97.3395 57.1102 96.844 59.6732 96.844C62.8665 96.844 65.8357 97.5734 68.5808 99.0321C71.3259 100.491 73.5668 102.472 75.3035 104.977L74.043 105.782C72.4463 103.484 70.3805 101.667 67.8455 100.333C65.3245 98.9977 62.6004 98.3303 59.6732 98.3303C57.3203 98.3303 55.0654 98.7844 52.9085 99.6927C50.7656 100.587 48.9169 101.798 47.3623 103.326C45.8076 104.853 44.5681 106.677 43.6438 108.796C42.7334 110.901 42.2782 113.11 42.2782 115.422C42.2782 117.913 42.7474 120.239 43.6858 122.399C44.6382 124.56 45.8987 126.369 47.4673 127.828C49.0499 129.287 50.8847 130.436 52.9715 131.275C55.0584 132.101 57.2292 132.514 59.4841 132.514C61.8511 132.514 64.127 132.149 66.3119 131.42V129.995C64.225 130.683 62.0331 131.028 59.7362 131.028C58.0696 131.028 56.4449 130.8 54.8623 130.346C53.2936 129.878 51.8371 129.197 50.4925 128.303C49.162 127.394 47.9925 126.321 46.9841 125.083C45.9897 123.83 45.2054 122.378 44.6312 120.727C44.0709 119.062 43.7908 117.294 43.7908 115.422C43.7908 112.601 44.4981 109.993 45.9127 107.599C47.3413 105.204 49.274 103.312 51.711 101.922C54.148 100.518 56.802 99.8165 59.6732 99.8165C62.3623 99.8165 64.8623 100.436 67.1732 101.674C69.4841 102.899 71.3679 104.564 72.8245 106.67L71.564 107.475C70.2474 105.576 68.5388 104.076 66.4379 102.975C64.3511 101.86 62.0962 101.303 59.6732 101.303C57.7264 101.303 55.8637 101.674 54.085 102.417C52.3062 103.161 50.7726 104.165 49.4841 105.431C48.2096 106.683 47.1942 108.183 46.4379 109.931C45.6816 111.679 45.3034 113.509 45.3034 115.422C45.3034 117.142 45.5555 118.759 46.0597 120.273C46.578 121.773 47.2852 123.087 48.1816 124.216C49.092 125.33 50.1494 126.294 51.3539 127.106C52.5583 127.904 53.8679 128.509 55.2824 128.922C56.711 129.335 58.1746 129.541 59.6732 129.541C61.9981 129.541 64.211 129.156 66.3119 128.385V126.899C64.239 127.683 62.0752 128.076 59.8203 128.076C58.1116 128.076 56.4799 127.794 54.9253 127.229C53.3707 126.651 51.9841 125.839 50.7656 124.794C49.5611 123.748 48.6018 122.413 47.8875 120.789C47.1732 119.165 46.816 117.376 46.816 115.422C46.816 113.138 47.3903 111.025 48.5387 109.085C49.6872 107.144 51.2488 105.61 53.2236 104.482C55.1984 103.353 57.3483 102.789 59.6732 102.789C61.8441 102.789 63.8609 103.284 65.7236 104.275C67.6004 105.266 69.127 106.615 70.3035 108.321L69.043 109.126C68.0065 107.64 66.662 106.463 65.0093 105.596C63.3707 104.716 61.592 104.275 59.6732 104.275C57.6144 104.275 55.7166 104.778 53.9799 105.782C52.2432 106.773 50.8637 108.122 49.8413 109.828C48.8329 111.534 48.3287 113.399 48.3287 115.422C48.3287 116.826 48.5317 118.133 48.9379 119.344C49.3441 120.555 49.9043 121.601 50.6186 122.482C51.3329 123.362 52.1662 124.112 53.1186 124.732C54.085 125.351 55.1214 125.819 56.2278 126.135C57.3343 126.438 58.4827 126.589 59.6732 126.589C62.0401 126.589 64.253 126.128 66.3119 125.206V123.782C64.3231 124.649 62.1732 125.083 59.8623 125.083C58.5317 125.083 57.2782 124.883 56.1018 124.484C54.9253 124.085 53.8609 123.5 52.9085 122.729C51.9701 121.959 51.2208 120.947 50.6606 119.695C50.1144 118.429 49.8413 117.005 49.8413 115.422C49.8413 114.115 50.1004 112.869 50.6186 111.686C51.1368 110.489 51.8371 109.456 52.7194 108.589C53.6018 107.722 54.6452 107.034 55.8497 106.525C57.0682 106.016 58.3427 105.761 59.6732 105.761C61.3399 105.761 62.8875 106.147 64.3161 106.917C65.7446 107.674 66.9071 108.706 67.8035 110.014L66.564 110.819C65.8077 109.718 64.8203 108.851 63.6018 108.218C62.3973 107.571 61.0878 107.248 59.6732 107.248C57.3763 107.248 55.4155 108.046 53.7908 109.642C52.1662 111.239 51.3539 113.165 51.3539 115.422C51.3539 116.812 51.585 118.044 52.0471 119.117C52.5093 120.177 53.1396 121.03 53.9379 121.677C54.7502 122.31 55.6466 122.791 56.627 123.122C57.6214 123.438 58.6858 123.596 59.8203 123.596C62.1452 123.596 64.3091 123.122 66.3119 122.172V114.658H67.8245Z" fill="white"/>
<path d="M92.8665 109.642C91.2418 111.239 90.4295 113.165 90.4295 115.422C90.4295 117.679 91.2418 119.606 92.8665 121.202C94.4911 122.798 96.4519 123.596 98.7489 123.596C101.046 123.596 103.007 122.798 104.631 121.202C106.256 119.606 107.068 117.679 107.068 115.422C107.068 113.165 106.256 111.239 104.631 109.642C103.007 108.046 101.046 107.248 98.7489 107.248C96.4519 107.248 94.4911 108.046 92.8665 109.642ZM89.6942 119.179C89.176 117.982 88.9169 116.729 88.9169 115.422C88.9169 114.115 89.176 112.869 89.6942 111.686C90.2124 110.489 90.9127 109.456 91.7951 108.589C92.6774 107.722 93.7208 107.034 94.9253 106.525C96.1438 106.016 97.4183 105.761 98.7489 105.761C100.079 105.761 101.347 106.016 102.551 106.525C103.77 107.034 104.82 107.722 105.703 108.589C106.585 109.456 107.285 110.489 107.803 111.686C108.322 112.869 108.581 114.115 108.581 115.422C108.581 116.729 108.322 117.982 107.803 119.179C107.285 120.362 106.585 121.388 105.703 122.255C104.82 123.122 103.77 123.81 102.551 124.319C101.347 124.828 100.079 125.083 98.7489 125.083C97.4183 125.083 96.1438 124.828 94.9253 124.319C93.7208 123.81 92.6774 123.122 91.7951 122.255C90.9127 121.388 90.2124 120.362 89.6942 119.179ZM88.9169 109.828C87.9085 111.534 87.4043 113.399 87.4043 115.422C87.4043 117.445 87.9085 119.31 88.9169 121.016C89.9393 122.722 91.3189 124.078 93.0556 125.083C94.7923 126.073 96.69 126.569 98.7489 126.569C100.808 126.569 102.705 126.073 104.442 125.083C106.179 124.078 107.551 122.722 108.56 121.016C109.582 119.31 110.093 117.445 110.093 115.422C110.093 113.399 109.582 111.534 108.56 109.828C107.551 108.122 106.179 106.773 104.442 105.782C102.705 104.778 100.808 104.275 98.7489 104.275C96.69 104.275 94.7923 104.778 93.0556 105.782C91.3189 106.773 89.9393 108.122 88.9169 109.828ZM87.6144 121.759C86.4659 119.819 85.8917 117.706 85.8917 115.422C85.8917 113.138 86.4659 111.025 87.6144 109.085C88.7629 107.144 90.3245 105.61 92.2993 104.482C94.2741 103.353 96.4239 102.789 98.7489 102.789C101.074 102.789 103.224 103.353 105.198 104.482C107.173 105.61 108.735 107.144 109.883 109.085C111.032 111.025 111.606 113.138 111.606 115.422C111.606 117.706 111.032 119.819 109.883 121.759C108.735 123.7 107.173 125.234 105.198 126.362C103.224 127.491 101.074 128.055 98.7489 128.055C96.4239 128.055 94.2741 127.491 92.2993 126.362C90.3245 125.234 88.7629 123.7 87.6144 121.759ZM85.5136 109.931C84.7572 111.679 84.3791 113.509 84.3791 115.422C84.3791 117.335 84.7572 119.165 85.5136 120.913C86.2699 122.661 87.2853 124.167 88.5598 125.433C89.8483 126.686 91.3819 127.683 93.1606 128.427C94.9393 129.17 96.8021 129.541 98.7489 129.541C100.696 129.541 102.558 129.17 104.337 128.427C106.116 127.683 107.642 126.686 108.917 125.433C110.205 124.167 111.228 122.661 111.984 120.913C112.74 119.165 113.119 117.335 113.119 115.422C113.119 113.509 112.74 111.679 111.984 109.931C111.228 108.183 110.205 106.683 108.917 105.431C107.642 104.165 106.116 103.161 104.337 102.417C102.558 101.674 100.696 101.303 98.7489 101.303C96.8021 101.303 94.9393 101.674 93.1606 102.417C91.3819 103.161 89.8483 104.165 88.5598 105.431C87.2853 106.683 86.2699 108.183 85.5136 109.931ZM84.9883 123.245C83.5738 120.851 82.8665 118.243 82.8665 115.422C82.8665 112.601 83.5738 109.993 84.9883 107.599C86.4169 105.204 88.3497 103.312 90.7867 101.922C93.2236 100.518 95.8777 99.8165 98.7489 99.8165C101.62 99.8165 104.274 100.518 106.711 101.922C109.148 103.312 111.074 105.204 112.488 107.599C113.917 109.993 114.631 112.601 114.631 115.422C114.631 118.243 113.917 120.851 112.488 123.245C111.074 125.64 109.148 127.539 106.711 128.943C104.274 130.333 101.62 131.028 98.7489 131.028C95.8777 131.028 93.2236 130.333 90.7867 128.943C88.3497 127.539 86.4169 125.64 84.9883 123.245ZM82.7194 108.796C81.8091 110.901 81.3539 113.11 81.3539 115.422C81.3539 117.734 81.8091 119.95 82.7194 122.069C83.6438 124.174 84.8833 125.991 86.4379 127.518C87.9925 129.046 89.8413 130.264 91.9841 131.172C94.141 132.067 96.3959 132.514 98.7489 132.514C101.102 132.514 103.35 132.067 105.493 131.172C107.649 130.264 109.505 129.046 111.06 127.518C112.614 125.991 113.847 124.174 114.757 122.069C115.682 119.95 116.144 117.734 116.144 115.422C116.144 113.11 115.682 110.901 114.757 108.796C113.847 106.677 112.614 104.853 111.06 103.326C109.505 101.798 107.649 100.587 105.493 99.6927C103.35 98.7844 101.102 98.3303 98.7489 98.3303C96.3959 98.3303 94.141 98.7844 91.9841 99.6927C89.8413 100.587 87.9925 101.798 86.4379 103.326C84.8833 104.853 83.6438 106.677 82.7194 108.796ZM81.3329 122.647C80.3385 120.349 79.8413 117.94 79.8413 115.422C79.8413 112.904 80.3385 110.502 81.3329 108.218C82.3413 105.92 83.6858 103.945 85.3665 102.294C87.0612 100.628 89.071 99.3073 91.3959 98.3303C93.7348 97.3395 96.1858 96.844 98.7489 96.844C101.312 96.844 103.756 97.3395 106.081 98.3303C108.42 99.3073 110.43 100.628 112.11 102.294C113.805 103.945 115.149 105.92 116.144 108.218C117.152 110.502 117.656 112.904 117.656 115.422C117.656 117.94 117.152 120.349 116.144 122.647C115.149 124.931 113.805 126.906 112.11 128.571C110.43 130.222 108.42 131.537 106.081 132.514C103.756 133.505 101.312 134 98.7489 134C96.1858 134 93.7348 133.505 91.3959 132.514C89.071 131.537 87.0612 130.222 85.3665 128.571C83.6858 126.906 82.3413 124.931 81.3329 122.647Z" fill="white"/>
<path d="M120.808 128.055V126.569H131.396V128.055H120.808ZM120.808 131.028V129.541H131.396V131.028H120.808ZM120.808 134V132.514H131.396V134H120.808ZM129.883 98.3303H131.396V123.596H129.883V98.3303ZM126.858 98.3303H128.371V123.596H126.858V98.3303ZM123.833 98.3303H125.346V123.596H123.833V98.3303ZM120.808 98.3303H122.32V123.596H120.808V98.3303Z" fill="white"/>
</svg>
